<svg id="visual" viewBox="0 0 900 600" width="900" height="600" xmlns="http://www.w3.org/2000/svg" xmlns:xlink="http://www.w3.org/1999/xlink" version="1.1"><path d="M0 313L12.5 317.3C25 321.7 50 330.3 75 325.2C100 320 125 301 150 308C175 315 200 348 225 359.7C250 371.3 275 361.7 300 363.7C325 365.7 350 379.3 375 368.2C400 357 425 321 450 319C475 317 500 349 525 352.8C550 356.7 575 332.3 600 328.2C625 324 650 340 675 348.8C700 357.7 725 359.3 750 346.2C775 333 800 305 825 299.8C850 294.7 875 312.3 887.5 321.2L900 330L900 601L887.5 601C875 601 850 601 825 601C800 601 775 601 750 601C725 601 700 601 675 601C650 601 625 601 600 601C575 601 550 601 525 601C500 601 475 601 450 601C425 601 400 601 375 601C350 601 325 601 300 601C275 601 250 601 225 601C200 601 175 601 150 601C125 601 100 601 75 601C50 601 25 601 12.5 601L0 601Z" fill="#393e46"></path><path d="M0 350L12.5 350.7C25 351.3 50 352.7 75 364.7C100 376.7 125 399.3 150 401.7C175 404 200 386 225 391.5C250 397 275 426 300 432C325 438 350 421 375 403C400 385 425 366 450 359.5C475 353 500 359 525 353.8C550 348.7 575 332.3 600 343.2C625 354 650 392 675 396.8C700 401.7 725 373.3 750 375.5C775 377.7 800 410.3 825 422.2C850 434 875 425 887.5 420.5L900 416L900 601L887.5 601C875 601 850 601 825 601C800 601 775 601 750 601C725 601 700 601 675 601C650 601 625 601 600 601C575 601 550 601 525 601C500 601 475 601 450 601C425 601 400 601 375 601C350 601 325 601 300 601C275 601 250 601 225 601C200 601 175 601 150 601C125 601 100 601 75 601C50 601 25 601 12.5 601L0 601Z" fill="#474866"></path><path d="M0 416L12.5 421.2C25 426.3 50 436.7 75 428.8C100 421 125 395 150 383.2C175 371.3 200 373.7 225 386.3C250 399 275 422 300 427.7C325 433.3 350 421.7 375 422.7C400 423.7 425 437.3 450 432.8C475 428.3 500 405.7 525 407.3C550 409 575 435 600 440.8C625 446.7 650 432.3 675 423C700 413.7 725 409.3 750 418C775 426.7 800 448.3 825 455.2C850 462 875 454 887.5 450L900 446L900 601L887.5 601C875 601 850 601 825 601C800 601 775 601 750 601C725 601 700 601 675 601C650 601 625 601 600 601C575 601 550 601 525 601C500 601 475 601 450 601C425 601 400 601 375 601C350 601 325 601 300 601C275 601 250 601 225 601C200 601 175 601 150 601C125 601 100 601 75 601C50 601 25 601 12.5 601L0 601Z" fill="#6a4c7e"></path><path d="M0 473L12.5 462C25 451 50 429 75 418.2C100 407.3 125 407.7 150 419.5C175 431.3 200 454.7 225 466.8C250 479 275 480 300 477C325 474 350 467 375 460.5C400 454 425 448 450 443.5C475 439 500 436 525 433.5C550 431 575 429 600 430.3C625 431.7 650 436.3 675 437.8C700 439.3 725 437.7 750 432.5C775 427.3 800 418.7 825 416.5C850 414.3 875 418.7 887.5 420.8L900 423L900 601L887.5 601C875 601 850 601 825 601C800 601 775 601 750 601C725 601 700 601 675 601C650 601 625 601 600 601C575 601 550 601 525 601C500 601 475 601 450 601C425 601 400 601 375 601C350 601 325 601 300 601C275 601 250 601 225 601C200 601 175 601 150 601C125 601 100 601 75 601C50 601 25 601 12.5 601L0 601Z" fill="#9b4784"></path><path d="M0 533L12.5 531.2C25 529.3 50 525.7 75 513.3C100 501 125 480 150 478C175 476 200 493 225 502.5C250 512 275 514 300 514C325 514 350 512 375 509.3C400 506.7 425 503.3 450 493.5C475 483.7 500 467.3 525 462C550 456.7 575 462.3 600 467C625 471.7 650 475.3 675 472.5C700 469.7 725 460.3 750 465.5C775 470.7 800 490.3 825 493.8C850 497.3 875 484.7 887.5 478.3L900 472L900 601L887.5 601C875 601 850 601 825 601C800 601 775 601 750 601C725 601 700 601 675 601C650 601 625 601 600 601C575 601 550 601 525 601C500 601 475 601 450 601C425 601 400 601 375 601C350 601 325 601 300 601C275 601 250 601 225 601C200 601 175 601 150 601C125 601 100 601 75 601C50 601 25 601 12.5 601L0 601Z" fill="#cb3d76"></path><path d="M0 539L12.5 531.2C25 523.3 50 507.7 75 500.5C100 493.3 125 494.7 150 505.8C175 517 200 538 225 546.5C250 555 275 551 300 541.5C325 532 350 517 375 506.3C400 495.7 425 489.3 450 492.5C475 495.7 500 508.3 525 520C550 531.7 575 542.3 600 547.5C625 552.7 650 552.3 675 540.5C700 528.7 725 505.3 750 495.3C775 485.3 800 488.7 825 500.3C850 512 875 532 887.5 542L900 552L900 601L887.5 601C875 601 850 601 825 601C800 601 775 601 750 601C725 601 700 601 675 601C650 601 625 601 600 601C575 601 550 601 525 601C500 601 475 601 450 601C425 601 400 601 375 601C350 601 325 601 300 601C275 601 250 601 225 601C200 601 175 601 150 601C125 601 100 601 75 601C50 601 25 601 12.5 601L0 601Z" fill="#ef3d56"></path><path d="M0 544L12.5 550.3C25 556.7 50 569.3 75 573.7C100 578 125 574 150 571.8C175 569.7 200 569.3 225 562C250 554.7 275 540.3 300 538.7C325 537 350 548 375 557.3C400 566.7 425 574.3 450 569C475 563.7 500 545.3 525 538C550 530.7 575 534.3 600 538C625 541.7 650 545.3 675 546.8C700 548.3 725 547.7 750 549.2C775 550.7 800 554.3 825 559.7C850 565 875 572 887.5 575.5L900 579L900 601L887.5 601C875 601 850 601 825 601C800 601 775 601 750 601C725 601 700 601 675 601C650 601 625 601 600 601C575 601 550 601 525 601C500 601 475 601 450 601C425 601 400 601 375 601C350 601 325 601 300 601C275 601 250 601 225 601C200 601 175 601 150 601C125 601 100 601 75 601C50 601 25 601 12.5 601L0 601Z" fill="#ff5722"></path></svg>