<svg id="visual" viewBox="0 0 900 600" width="900" height="600" xmlns="http://www.w3.org/2000/svg" xmlns:xlink="http://www.w3.org/1999/xlink" version="1.1"><path d="M0 123L37.5 127.8C75 132.7 150 142.3 225 161.2C300 180 375 208 450 210.2C525 212.3 600 188.7 675 172.7C750 156.7 825 148.3 862.5 144.2L900 140L900 601L862.5 601C825 601 750 601 675 601C600 601 525 601 450 601C375 601 300 601 225 601C150 601 75 601 37.5 601L0 601Z" fill="#14447e"></path><path d="M0 264L37.5 275.3C75 286.7 150 309.3 225 335C300 360.7 375 389.3 450 383.3C525 377.3 600 336.7 675 313.8C750 291 825 286 862.5 283.5L900 281L900 601L862.5 601C825 601 750 601 675 601C600 601 525 601 450 601C375 601 300 601 225 601C150 601 75 601 37.5 601L0 601Z" fill="#004f7e"></path><path d="M0 491L37.5 473.2C75 455.3 150 419.7 225 424.7C300 429.7 375 475.3 450 498.7C525 522 600 523 675 504C750 485 825 446 862.5 426.5L900 407L900 601L862.5 601C825 601 750 601 675 601C600 601 525 601 450 601C375 601 300 601 225 601C150 601 75 601 37.5 601L0 601Z" fill="#00587a"></path></svg>